<svg id="altavoz" xmlns="http://www.w3.org/2000/svg" width="18.547" height="16.4" viewBox="0 0 18.547 16.4">
  <path id="Trazado_74" data-name="Trazado 74" d="M10.126,3.154a1.08,1.08,0,0,0-1.1.016.331.331,0,0,0-.046.033L4.147,7.29H.356A.356.356,0,0,0,0,7.646v6.773a.357.357,0,0,0,.356.356l3.782,0,4.828,4.435a.348.348,0,0,0,.057.043,1.08,1.08,0,0,0,1.1.016,1.113,1.113,0,0,0,.569-.982V4.137A1.114,1.114,0,0,0,10.126,3.154ZM9.982,18.285a.409.409,0,0,1-.206.362.374.374,0,0,1-.356.009l-4.785-4.4V12.637a.356.356,0,0,0-.713,0v1.425H.713V8H3.921V9.429a.356.356,0,0,0,.713,0V7.812L9.413,3.769a.373.373,0,0,1,.362.006.409.409,0,0,1,.206.361Z" transform="translate(0 -3.011)" fill="#fff"/>
  <path id="Trazado_75" data-name="Trazado 75" d="M37.946,7.032a.357.357,0,0,0-.229.676,6.232,6.232,0,0,1,.008,11.8.357.357,0,0,0,.115.694.352.352,0,0,0,.115-.019,6.946,6.946,0,0,0-.009-13.153Z" transform="translate(-24.115 -5.586)" fill="#fff"/>
  <path id="Trazado_76" data-name="Trazado 76" d="M35.93,17.147a4.834,4.834,0,0,0-3.475-4.621.357.357,0,1,0-.2.685,4.1,4.1,0,0,1,0,7.871.357.357,0,0,0,.1.7.363.363,0,0,0,.1-.014A4.834,4.834,0,0,0,35.93,17.147Z" transform="translate(-20.592 -9.125)" fill="#fff"/>
</svg>