<!-- <svg version="1.1" xmlns="http://www.w3.org/2000/svg" xmlns:xlink="http://www.w3.org/1999/xlink" x="0px" y="0px"
	 width="64px" height="64px" viewBox="0 0 64 64" enable-background="new 0 0 64 64" xml:space="preserve">
<path style="fill: #F9F9F9;" d="M31.293,46.707C31.488,46.902,31.744,47,32,47s0.512-0.098,0.707-0.293l28-28c0.391-0.391,0.391-1.023,0-1.414
	s-1.023-0.391-1.414,0L32,44.586L4.707,17.293c-0.391-0.391-1.023-0.391-1.414,0s-0.391,1.023,0,1.414L31.293,46.707z"/>
</svg> -->

<svg xmlns="http://www.w3.org/2000/svg" width="11.683" height="7.522" viewBox="0 0 11.683 7.522"><defs><style>.a{fill:#F9F9F9;}</style></defs><g transform="translate(-1.319 -292.63)"><path class="a" d="M2.13,292.642a.833.833,0,0,0-.6,1.384l4.991,5.834a.833.833,0,0,0,1.267,0l5-5.834a.833.833,0,1,0-1.265-1.082l-4.365,5.1-4.364-5.1a.833.833,0,0,0-.659-.3Z" transform="translate(0 0)"/></g></svg>