<svg xmlns="http://www.w3.org/2000/svg" width="12.667" height="12.667" viewBox="0 0 12.667 12.667"><defs><style>.a{fill:#b40d04;}</style></defs><path class="a" d="M16.667,4.422v3.8a.422.422,0,0,1-.845,0V5.442L9.788,11.477a.422.422,0,0,1-.6-.6l6.035-6.035h-2.78a.422.422,0,1,1,0-.845h3.8a.422.422,0,0,1,.422.422ZM14.978,15.4V10.333a.422.422,0,0,0-.845,0V15.4a.423.423,0,0,1-.422.422H5.267a.423.423,0,0,1-.422-.422V6.956a.423.423,0,0,1,.422-.422h5.067a.422.422,0,1,0,0-.845H5.267A1.268,1.268,0,0,0,4,6.956V15.4a1.268,1.268,0,0,0,1.267,1.267h8.445A1.268,1.268,0,0,0,14.978,15.4Z" transform="translate(-4 -4)"/></svg>