<svg xmlns="http://www.w3.org/2000/svg" width="15.084" height="18.195" viewBox="0 0 15.084 18.195"><defs><style>.a{fill:#ffffff;stroke:#ffffff;stroke-width:0.5px;}</style></defs><g transform="translate(-5.909 0.25)"><g transform="translate(6.159 0)"><path class="a" d="M40.077,19.637a7.229,7.229,0,0,0-2.132-5.148.235.235,0,0,0-.331.332,6.809,6.809,0,0,1-4.807,11.624l1.39-1.39a.234.234,0,0,0-.331-.332l-1.841,1.84,1.841,1.84a.229.229,0,0,0,.165.069.235.235,0,0,0,.166-.4L33.027,26.9A7.283,7.283,0,0,0,40.077,19.637Z" transform="translate(-25.493 -10.779)"/><path class="a" d="M12.372.068A.235.235,0,0,0,12.041.4l1.168,1.169A7.274,7.274,0,0,0,8.29,13.984a.235.235,0,0,0,.166.069.231.231,0,0,0,.165-.069.233.233,0,0,0,0-.332A6.809,6.809,0,0,1,13.429,2.029L12.04,3.418a.234.234,0,0,0,0,.332.232.232,0,0,0,.331,0l1.84-1.841Z" transform="translate(-6.159 0)"/></g></g></svg>