<svg xmlns="http://www.w3.org/2000/svg" width="13.146" height="15.168" viewBox="0 0 13.146 15.168"><defs><style>.a{fill:#D3D3D3;}</style></defs><g transform="translate(3.034 0)"><path class="a" d="M174.205,85.333a3.539,3.539,0,1,0,3.539,3.539A3.543,3.543,0,0,0,174.205,85.333Zm0,6.067a2.528,2.528,0,1,1,2.528-2.528A2.531,2.531,0,0,1,174.205,91.4Z" transform="translate(-170.666 -85.333)"/></g><g transform="translate(0 8.09)"><path class="a" d="M113.239,256a6.58,6.58,0,0,0-6.573,6.573.506.506,0,1,0,1.011,0,5.562,5.562,0,1,1,11.123,0,.506.506,0,1,0,1.011,0A6.58,6.58,0,0,0,113.239,256Z" transform="translate(-106.666 -256)"/></g></svg>