<svg id="svg" version="1.1" xmlns="http://www.w3.org/2000/svg" xmlns:xlink="http://www.w3.org/1999/xlink" width="400" height="400" viewBox="0, 0, 400,400"><g id="svgg"><path id="path0" d="M0.000 67.800 L 0.000 125.200 2.019 125.200 C 3.834 125.200,4.105 125.319,4.714 126.379 C 5.086 127.028,5.798 127.744,6.295 127.971 C 7.173 128.370,7.200 128.553,7.200 134.034 C 7.200 139.478,7.237 139.728,8.200 140.873 C 10.006 143.019,9.439 143.769,6.078 143.680 C 2.287 143.581,1.604 142.652,3.798 140.581 C 4.614 139.811,4.662 139.435,4.596 134.244 C 4.518 128.063,4.496 128.016,1.700 128.006 L 0.000 128.000 -0.000 170.500 L -0.000 213.000 4.500 213.000 C 8.939 213.000,9.002 213.013,9.135 213.955 C 9.334 215.359,8.633 215.587,4.100 215.594 L 0.000 215.600 0.000 217.104 C 0.000 219.075,1.080 219.798,3.821 219.663 C 6.541 219.528,7.897 220.725,6.249 221.805 C 5.639 222.204,4.623 222.428,3.715 222.362 C 2.882 222.302,1.705 222.395,1.100 222.570 L 0.000 222.887 -0.000 228.557 L -0.000 234.228 1.100 234.876 C 1.862 235.326,2.754 235.463,4.001 235.322 C 5.459 235.157,5.940 235.271,6.526 235.919 C 7.670 237.182,6.171 238.000,2.711 238.000 L 0.000 238.000 0.000 299.523 L 0.000 361.046 2.067 361.046 C 3.818 361.046,4.230 361.195,4.767 362.022 C 5.115 362.559,5.828 363.401,6.351 363.892 C 7.257 364.744,7.306 365.057,7.385 370.456 C 7.464 375.793,7.522 376.169,8.364 376.851 C 10.604 378.665,7.520 380.369,3.721 379.416 C 2.565 379.126,2.466 377.479,3.559 376.714 C 4.234 376.241,4.333 375.533,4.453 370.305 C 4.605 363.690,4.593 363.659,1.900 363.906 L 0.000 364.081 0.000 376.040 L 0.000 388.000 200.000 388.000 L 400.000 388.000 400.000 383.800 L 400.000 379.600 398.400 379.600 C 396.478 379.600,395.200 378.514,395.200 376.880 C 395.200 374.734,396.668 374.182,398.075 375.800 C 399.586 377.538,400.000 377.122,400.000 373.864 C 400.000 371.121,399.934 370.899,399.000 370.473 C 398.418 370.208,398.000 369.682,398.000 369.216 C 398.000 368.693,397.649 368.327,396.989 368.162 C 395.914 367.892,395.200 366.919,395.200 365.722 C 395.200 364.913,398.832 360.800,399.547 360.800 C 399.883 360.800,400.000 332.751,400.000 252.221 L 400.000 143.642 397.904 143.521 C 395.397 143.376,394.956 142.524,396.528 140.860 C 397.481 139.851,397.536 139.532,397.665 134.264 L 397.800 128.727 396.676 128.138 C 394.977 127.248,395.275 125.450,397.151 125.271 C 397.894 125.200,398.695 125.335,398.931 125.571 C 399.167 125.807,399.504 126.000,399.680 126.000 C 399.856 126.000,400.000 99.990,400.000 68.200 L 400.000 10.400 200.000 10.400 L 0.000 10.400 0.000 67.800 M368.036 32.803 C 368.947 33.056,369.640 33.569,369.928 34.202 C 370.557 35.582,370.571 363.390,369.943 365.193 C 369.708 365.866,369.187 366.593,368.785 366.808 C 368.009 367.223,32.171 367.394,31.091 366.979 C 30.770 366.857,30.304 366.307,30.054 365.759 C 29.269 364.036,29.417 34.839,30.204 33.716 C 30.535 33.242,31.210 32.777,31.704 32.682 C 33.717 32.294,366.634 32.414,368.036 32.803 M27.600 199.880 C 27.600 333.544,27.500 366.860,27.100 366.460 C 26.703 366.063,26.583 343.123,26.517 254.887 C 26.424 130.673,26.720 142.474,23.711 142.945 C 21.663 143.265,20.408 142.057,21.329 140.652 C 21.917 139.755,22.305 139.600,23.963 139.600 C 26.607 139.600,26.402 144.085,26.395 86.341 C 26.389 38.476,26.495 32.800,27.390 32.800 C 27.506 32.800,27.600 107.986,27.600 199.880 M373.218 81.596 C 373.197 117.310,373.305 129.045,373.660 129.473 C 374.050 129.943,374.522 129.625,376.412 127.620 L 378.694 125.200 381.984 125.200 L 385.274 125.200 388.437 128.389 C 391.982 131.962,391.808 131.637,391.004 133.192 C 390.187 134.772,389.660 134.870,382.701 134.736 C 379.345 134.672,376.375 134.760,376.100 134.933 C 375.035 135.602,375.515 138.144,376.966 139.512 L 378.331 140.800 383.251 140.800 C 388.051 140.800,388.190 140.775,388.987 139.775 C 389.547 139.073,390.025 138.835,390.502 139.018 C 391.544 139.418,391.364 140.021,389.639 141.908 L 388.078 143.616 383.196 143.693 C 378.747 143.762,378.265 143.700,377.773 142.985 C 377.476 142.553,377.090 142.074,376.916 141.920 C 375.359 140.542,374.878 140.034,374.742 139.627 C 374.652 139.357,374.287 139.268,373.892 139.420 C 373.236 139.672,373.200 145.714,373.220 249.943 L 373.241 360.200 374.593 361.735 C 376.054 363.394,377.325 363.496,377.719 361.987 C 378.009 360.879,379.147 361.008,379.600 362.200 C 380.088 363.484,380.968 363.469,382.285 362.152 C 383.765 360.671,385.596 360.648,386.306 362.101 C 386.603 362.707,387.352 363.465,387.973 363.786 L 389.101 364.369 389.162 370.285 C 389.220 375.750,389.287 376.248,390.049 376.830 C 391.250 377.746,390.933 379.362,389.520 379.525 C 386.610 379.860,386.002 378.090,386.231 369.942 C 386.366 365.125,386.294 364.045,385.824 363.864 C 385.139 363.602,382.412 366.478,382.374 367.501 C 382.192 372.486,382.506 375.860,383.225 376.626 C 384.843 378.350,383.728 380.020,381.357 379.425 C 379.861 379.050,379.600 377.734,379.600 370.574 C 379.600 363.000,379.289 362.483,376.714 365.788 L 375.321 367.576 375.507 371.688 C 375.651 374.865,375.854 375.982,376.400 376.600 C 378.446 378.912,377.633 379.754,373.579 379.524 C 371.008 379.378,370.428 378.273,372.027 376.571 C 372.900 375.642,372.913 375.492,372.590 369.910 C 372.177 362.755,372.215 386.345,372.314 197.420 C 372.374 82.166,372.526 33.566,372.823 33.863 C 373.116 34.156,373.237 48.842,373.218 81.596 M377.717 128.952 C 377.261 129.475,376.644 129.992,376.345 130.100 C 375.926 130.252,375.902 130.471,376.242 131.049 C 377.210 132.694,388.400 132.440,388.400 130.773 C 388.400 128.378,379.530 126.866,377.717 128.952 M20.164 217.751 C 20.492 219.495,19.688 221.830,19.184 220.600 C 18.563 219.084,18.828 216.400,19.598 216.400 C 19.770 216.400,20.025 217.008,20.164 217.751 M22.787 224.476 C 22.794 224.848,22.604 225.274,22.365 225.422 C 22.052 225.615,22.052 225.812,22.365 226.125 C 22.961 226.721,22.910 227.613,22.237 228.369 C 21.568 229.119,21.299 230.798,21.736 231.500 C 21.935 231.819,21.822 232.000,21.424 232.000 C 20.893 232.000,20.800 231.279,20.800 227.181 L 20.800 222.363 21.787 223.081 C 22.331 223.477,22.781 224.104,22.787 224.476 M19.994 237.133 C 19.998 238.344,19.849 238.816,19.500 238.700 C 19.225 238.608,19.015 238.233,19.033 237.867 C 19.052 237.500,19.099 236.525,19.139 235.700 C 19.242 233.586,19.986 234.833,19.994 237.133 M398.267 364.267 C 397.710 364.823,397.992 367.511,398.633 367.757 C 399.828 368.216,400.000 367.995,400.000 366.000 C 400.000 364.060,399.237 363.297,398.267 364.267 M41.948 370.361 C 40.539 371.503,40.457 374.462,41.782 376.375 C 43.338 378.620,43.062 379.370,40.623 379.525 C 36.906 379.761,35.406 378.510,37.162 376.640 C 38.188 375.548,38.303 372.545,37.386 370.773 C 36.901 369.835,36.880 369.549,37.286 369.412 C 39.671 368.609,43.220 369.331,41.948 370.361 M62.274 370.185 C 61.382 370.628,60.695 374.400,61.506 374.400 C 61.698 374.400,62.461 374.940,63.200 375.600 C 64.945 377.158,71.499 377.474,71.879 376.019 C 71.992 375.589,72.515 374.955,73.042 374.609 C 74.155 373.880,74.285 372.512,73.403 370.806 C 72.846 369.729,72.860 369.635,73.602 369.399 C 75.817 368.696,79.055 369.332,77.828 370.229 C 77.387 370.551,77.026 371.471,76.900 372.593 C 76.763 373.809,76.447 374.561,75.965 374.819 C 75.565 375.033,74.303 376.196,73.161 377.404 L 71.084 379.600 67.642 379.593 L 64.200 379.587 62.500 377.826 C 61.565 376.858,60.800 375.883,60.800 375.660 C 60.800 375.437,60.456 375.145,60.036 375.011 C 58.936 374.662,58.331 373.795,57.998 372.093 C 57.838 371.272,57.638 370.336,57.553 370.013 C 57.349 369.231,59.711 368.863,61.674 369.370 C 63.069 369.731,63.101 369.775,62.274 370.185 M161.471 369.737 C 161.585 369.851,161.300 370.180,160.839 370.469 C 160.134 370.909,160.000 371.387,160.000 373.473 C 160.000 376.382,160.147 376.525,163.400 376.798 C 165.755 376.996,165.800 377.022,165.800 378.200 L 165.800 379.400 158.853 379.510 C 151.670 379.623,150.800 379.459,150.800 377.994 C 150.800 377.104,151.580 376.800,153.859 376.800 C 157.269 376.800,158.904 372.511,156.300 370.398 L 155.400 369.667 156.600 369.399 C 157.260 369.251,157.980 369.085,158.200 369.031 C 158.687 368.910,161.182 369.449,161.471 369.737 M263.745 369.385 C 264.814 369.621,264.847 369.685,264.245 370.350 C 261.746 373.111,264.782 376.800,269.553 376.800 C 272.864 376.800,272.992 376.748,275.642 374.300 C 276.679 373.342,276.593 371.757,275.441 370.605 L 274.482 369.646 275.741 369.358 C 277.054 369.059,279.508 369.096,280.038 369.424 C 280.207 369.528,280.089 370.105,279.775 370.707 C 279.462 371.308,279.204 372.198,279.202 372.684 C 279.201 373.171,278.914 373.801,278.565 374.084 C 278.216 374.368,276.788 375.725,275.392 377.100 L 272.853 379.600 269.517 379.600 L 266.182 379.600 263.443 376.728 C 261.259 374.438,260.662 373.541,260.495 372.296 C 260.373 371.386,259.978 370.543,259.548 370.275 C 258.808 369.813,261.062 368.760,262.200 369.036 C 262.420 369.090,263.115 369.247,263.745 369.385 M53.372 369.555 C 53.493 369.750,53.323 370.132,52.996 370.404 C 52.034 371.202,52.181 375.678,53.200 376.600 C 55.089 378.309,54.056 379.600,50.800 379.600 C 47.413 379.600,46.651 378.631,48.600 376.800 C 50.024 375.462,50.046 372.010,48.640 370.603 C 47.818 369.781,47.775 369.618,48.340 369.468 C 49.582 369.138,53.153 369.200,53.372 369.555 M89.334 369.468 C 89.481 369.615,89.320 370.046,88.976 370.426 C 88.133 371.358,87.726 375.388,88.394 376.193 C 89.365 377.362,96.161 377.042,96.727 375.800 C 97.201 374.760,97.505 374.635,98.567 375.043 C 99.484 375.394,99.344 376.287,98.262 376.996 C 97.746 377.335,97.119 378.059,96.870 378.606 C 96.435 379.561,96.274 379.600,92.709 379.593 L 89.000 379.587 87.300 377.826 C 85.684 376.153,85.600 375.947,85.600 373.662 C 85.600 371.569,85.470 371.155,84.592 370.465 C 83.909 369.928,83.748 369.606,84.092 369.468 C 84.855 369.161,89.027 369.161,89.334 369.468 M116.119 369.453 C 116.258 369.591,116.108 370.081,115.786 370.542 C 115.074 371.559,114.999 375.639,115.680 376.320 C 115.944 376.584,117.101 376.800,118.251 376.800 C 120.481 376.800,121.745 377.555,121.514 378.749 C 121.403 379.323,120.493 379.400,113.794 379.400 L 106.200 379.400 106.069 378.478 C 105.851 376.939,106.556 376.514,108.993 376.716 C 111.896 376.957,112.400 376.514,112.400 373.725 C 112.400 371.270,111.897 370.019,110.886 369.960 C 110.447 369.935,110.559 369.805,111.200 369.600 C 112.427 369.207,115.773 369.107,116.119 369.453 M136.185 369.449 C 136.778 369.677,136.774 369.766,136.142 370.464 C 135.220 371.482,134.886 375.642,135.673 376.295 C 135.980 376.549,137.394 376.812,138.815 376.879 C 141.394 377.000,141.400 377.003,141.400 378.200 L 141.400 379.400 135.800 379.495 C 128.831 379.614,128.310 379.514,128.475 378.102 C 128.579 377.213,128.865 376.977,130.169 376.708 C 133.033 376.117,133.920 372.201,131.612 370.331 C 130.854 369.716,130.845 369.646,131.493 369.477 C 132.595 369.190,135.464 369.173,136.185 369.449 M174.369 369.454 C 175.619 369.704,175.624 369.714,174.719 370.163 C 172.967 371.032,173.255 373.913,175.251 375.500 C 177.531 377.312,184.724 377.503,186.562 375.800 C 187.792 374.661,188.126 374.588,188.737 375.324 C 189.068 375.723,188.760 376.296,187.450 377.724 L 185.727 379.600 180.926 379.600 L 176.125 379.600 174.208 377.210 C 173.153 375.895,171.961 374.715,171.559 374.587 C 171.093 374.439,170.742 373.820,170.592 372.877 C 170.238 370.654,169.865 370.216,168.159 370.025 L 166.600 369.849 168.400 369.585 C 170.982 369.205,172.914 369.163,174.369 369.454 M210.800 369.600 C 211.727 369.897,211.736 369.923,210.927 369.960 C 209.219 370.038,208.645 375.618,210.237 376.661 C 211.333 377.379,211.530 378.988,210.567 379.357 C 209.364 379.819,208.551 379.595,206.827 378.327 C 205.151 377.095,205.079 377.079,204.562 377.827 C 203.390 379.522,203.189 379.600,199.980 379.600 C 197.208 379.600,196.701 379.488,196.096 378.746 C 195.713 378.276,194.905 377.436,194.300 376.879 C 193.324 375.982,193.200 375.584,193.200 373.357 C 193.200 371.252,193.063 370.749,192.352 370.252 C 191.525 369.672,191.536 369.654,192.852 369.493 C 195.333 369.189,209.787 369.276,210.800 369.600 M219.317 369.451 C 219.455 369.589,219.305 370.210,218.984 370.831 C 218.062 372.613,218.279 373.484,220.082 375.233 L 221.763 376.865 226.275 376.732 C 230.422 376.611,230.837 376.527,231.416 375.700 C 232.107 374.712,233.173 374.533,233.921 375.281 C 234.295 375.655,234.158 375.994,233.301 376.811 C 232.695 377.388,231.887 378.252,231.504 378.730 C 230.861 379.533,230.452 379.600,226.158 379.600 L 221.509 379.600 218.896 377.000 C 217.459 375.570,216.129 374.400,215.942 374.400 C 215.754 374.400,215.600 373.758,215.600 372.974 C 215.600 371.213,214.993 370.009,214.086 369.972 C 213.515 369.949,213.535 369.886,214.200 369.600 C 215.138 369.197,218.952 369.086,219.317 369.451 M251.600 369.580 C 253.051 369.838,253.164 369.910,252.180 369.950 C 250.398 370.023,250.000 370.659,250.000 373.431 C 250.000 376.425,250.289 376.717,253.414 376.877 C 255.677 376.994,255.806 377.056,255.925 378.086 C 256.093 379.544,255.622 379.624,247.600 379.501 L 241.000 379.400 241.000 378.200 C 241.000 377.041,241.068 376.996,243.000 376.895 C 246.820 376.696,246.800 376.712,246.800 373.825 C 246.800 369.634,248.127 370.013,233.057 369.908 L 219.800 369.816 233.200 369.600 C 240.570 369.481,247.320 369.356,248.200 369.322 C 249.080 369.287,250.610 369.403,251.600 369.580 M288.964 369.441 C 289.515 369.653,289.494 369.808,288.796 370.695 C 287.598 372.219,287.700 375.328,289.000 376.873 C 290.750 378.953,290.228 379.600,286.800 379.600 C 283.544 379.600,282.511 378.309,284.400 376.600 C 285.606 375.508,285.568 371.025,284.346 370.371 C 282.710 369.495,286.904 368.651,288.964 369.441 M300.185 369.449 C 300.749 369.666,300.760 369.784,300.268 370.349 C 299.076 371.718,299.039 375.802,300.211 376.570 C 302.503 378.072,301.466 379.400,298.000 379.400 C 294.446 379.400,293.884 378.604,295.817 376.307 C 297.174 374.694,297.022 371.472,295.535 370.351 C 294.692 369.715,294.688 369.678,295.427 369.490 C 296.596 369.192,299.450 369.168,300.185 369.449 M317.992 369.458 L 319.284 369.717 318.042 370.239 C 317.104 370.634,316.785 371.035,316.739 371.881 C 316.706 372.496,316.658 373.212,316.634 373.472 C 316.535 374.526,316.088 374.325,315.368 372.902 C 313.851 369.907,314.128 370.009,307.238 369.915 L 301.000 369.831 307.400 369.600 C 310.920 369.473,314.453 369.331,315.250 369.285 C 316.048 369.238,317.281 369.316,317.992 369.458 M333.849 369.439 C 334.697 369.666,334.697 369.666,333.749 370.615 C 329.975 374.389,338.150 379.056,342.100 375.384 C 344.427 373.221,344.165 370.037,341.653 369.949 C 340.540 369.910,340.775 369.810,342.661 369.519 C 344.209 369.281,346.137 369.281,347.861 369.519 C 350.098 369.828,350.294 369.907,348.928 369.949 C 347.265 370.000,347.254 370.010,346.638 372.127 C 346.204 373.620,345.719 374.415,345.010 374.795 C 344.455 375.092,344.000 375.501,344.000 375.703 C 344.000 375.906,343.183 376.865,342.185 377.836 C 339.797 380.156,337.100 380.378,335.337 378.400 C 333.542 376.386,332.800 376.935,332.800 380.275 C 332.800 381.622,333.056 382.389,333.800 383.273 C 335.668 385.492,334.909 386.382,331.280 386.229 C 327.954 386.089,327.576 385.662,329.066 383.726 L 330.239 382.200 330.150 376.665 C 330.078 372.189,329.935 370.991,329.406 370.406 C 328.458 369.359,331.269 368.746,333.849 369.439 M367.270 370.200 C 367.198 370.640,367.042 372.119,366.924 373.487 C 366.730 375.731,366.576 376.076,365.354 377.008 C 364.609 377.576,364.000 378.298,364.000 378.613 C 364.000 380.181,358.447 379.905,357.680 378.298 C 357.104 377.090,356.364 377.224,354.560 378.863 C 353.264 380.041,352.609 378.965,352.732 375.859 C 352.878 372.145,353.412 371.921,356.151 374.425 C 358.525 376.595,360.547 377.251,362.976 376.642 C 364.207 376.333,364.511 372.107,363.414 370.542 C 362.616 369.402,363.020 369.144,365.385 369.282 C 367.146 369.385,367.384 369.501,367.270 370.200 M46.505 369.882 C 46.014 369.977,45.114 369.979,44.505 369.887 C 43.897 369.795,44.300 369.717,45.400 369.714 C 46.500 369.711,46.997 369.787,46.505 369.882 M56.300 369.876 C 55.915 369.976,55.285 369.976,54.900 369.876 C 54.515 369.775,54.830 369.693,55.600 369.693 C 56.370 369.693,56.685 369.775,56.300 369.876 M70.515 369.894 C 69.368 369.975,67.388 369.976,66.115 369.896 C 64.842 369.816,65.780 369.751,68.200 369.750 C 70.620 369.749,71.662 369.814,70.515 369.894 M82.500 369.882 C 82.005 369.978,81.195 369.978,80.700 369.882 C 80.205 369.787,80.610 369.709,81.600 369.709 C 82.590 369.709,82.995 369.787,82.500 369.882 M104.900 369.899 C 102.205 369.968,97.795 369.968,95.100 369.899 C 92.405 369.830,94.610 369.773,100.000 369.773 C 105.390 369.773,107.595 369.830,104.900 369.899 M126.920 369.897 C 125.115 369.971,122.055 369.972,120.120 369.898 C 118.184 369.825,119.660 369.764,123.400 369.764 C 127.140 369.763,128.724 369.823,126.920 369.897 M150.500 369.899 C 148.025 369.969,143.975 369.969,141.500 369.899 C 139.025 369.828,141.050 369.771,146.000 369.771 C 150.950 369.771,152.975 369.828,150.500 369.899 M165.305 369.882 C 164.814 369.977,163.914 369.979,163.305 369.887 C 162.697 369.795,163.100 369.717,164.200 369.714 C 165.300 369.711,165.797 369.787,165.305 369.882 M187.720 369.897 C 185.915 369.971,182.855 369.972,180.920 369.898 C 178.984 369.825,180.460 369.764,184.200 369.764 C 187.940 369.763,189.524 369.823,187.720 369.897 M257.305 369.882 C 256.814 369.977,255.914 369.979,255.305 369.887 C 254.697 369.795,255.100 369.717,256.200 369.714 C 257.300 369.711,257.797 369.787,257.305 369.882 M270.912 369.892 C 269.984 369.976,268.364 369.977,267.312 369.895 C 266.260 369.812,267.020 369.743,269.000 369.742 C 270.980 369.741,271.840 369.808,270.912 369.892 M293.500 369.887 C 292.895 369.978,291.905 369.978,291.300 369.887 C 290.695 369.795,291.190 369.720,292.400 369.720 C 293.610 369.720,294.105 369.795,293.500 369.887 M326.713 369.893 C 325.676 369.976,323.876 369.976,322.713 369.895 C 321.551 369.814,322.400 369.747,324.600 369.746 C 326.800 369.745,327.751 369.811,326.713 369.893 M339.105 369.875 C 338.722 369.975,338.002 369.979,337.505 369.883 C 337.007 369.787,337.320 369.705,338.200 369.701 C 339.080 369.696,339.487 369.775,339.105 369.875 M196.389 371.621 C 195.788 372.743,195.796 375.472,196.402 376.202 C 197.121 377.069,204.400 377.075,204.400 376.209 C 204.400 375.884,204.833 375.335,205.362 374.988 C 206.511 374.236,206.982 372.687,206.396 371.592 C 205.737 370.362,197.049 370.387,196.389 371.621 M25.199 375.800 C 27.702 377.094,26.894 378.965,24.000 378.575 C 21.039 378.176,20.800 378.044,20.800 376.802 C 20.800 376.034,21.030 375.612,21.500 375.516 C 23.188 375.172,24.124 375.244,25.199 375.800 M318.638 376.555 C 318.513 377.020,318.408 378.075,318.405 378.900 C 318.402 379.725,318.220 380.400,318.000 380.400 C 317.775 380.400,317.600 379.271,317.600 377.813 C 317.600 375.618,317.696 375.262,318.232 375.468 C 318.648 375.627,318.787 376.000,318.638 376.555 " stroke="none" fill="#7d7d7d" fill-rule="evenodd"/><path id="path1" d="M65.900 63.187 L 64.000 65.143 64.000 200.085 L 64.000 335.028 66.243 336.914 L 68.487 338.800 201.343 338.792 L 334.200 338.783 336.500 336.592 L 338.800 334.401 338.800 200.019 L 338.800 65.636 336.669 63.418 L 334.537 61.200 201.169 61.216 L 67.800 61.232 65.900 63.187 M329.925 69.984 L 330.800 71.168 330.800 200.058 L 330.800 328.948 329.930 329.874 L 329.061 330.800 201.716 330.800 C 82.634 330.800,74.301 330.756,73.286 330.121 C 72.689 329.748,72.153 329.415,72.095 329.383 C 72.038 329.350,71.990 271.111,71.990 199.962 L 71.989 70.600 73.017 69.700 L 74.045 68.800 201.547 68.800 L 329.050 68.800 329.925 69.984 M115.062 115.131 C 113.981 116.326,114.050 238.759,115.131 239.738 C 116.166 240.675,221.344 240.767,222.624 239.833 C 223.676 239.064,224.053 223.562,223.052 222.200 C 222.472 221.410,221.944 221.399,179.610 221.302 C 156.039 221.248,136.342 221.100,135.838 220.974 C 133.683 220.433,133.600 219.624,133.600 199.222 L 133.600 180.471 134.831 179.436 C 136.048 178.411,136.133 178.400,142.817 178.400 C 151.108 178.400,150.400 179.278,150.400 169.000 C 150.400 158.723,151.108 159.600,142.819 159.600 C 132.898 159.600,133.546 160.497,133.638 146.892 C 133.710 136.254,133.927 134.620,135.317 134.248 C 135.803 134.117,156.758 134.008,181.884 134.005 C 227.560 134.000,227.569 134.000,228.340 133.172 C 229.952 131.442,230.293 117.389,228.771 115.454 L 227.942 114.400 171.833 114.400 C 117.983 114.400,115.697 114.429,115.062 115.131 M165.681 160.079 C 164.879 160.881,165.013 176.956,165.829 177.771 C 166.393 178.336,171.666 178.400,217.891 178.400 L 269.324 178.400 270.662 179.420 L 272.000 180.441 271.995 199.320 C 271.988 223.216,272.804 220.890,264.319 221.200 C 257.236 221.458,257.800 220.628,257.800 230.799 C 257.800 241.020,257.161 240.144,264.799 240.400 C 268.927 240.538,270.922 240.760,271.281 241.120 C 272.197 242.037,272.016 264.154,271.086 265.085 C 270.408 265.763,267.720 265.805,219.086 265.897 C 190.879 265.950,167.582 265.995,167.316 265.997 C 165.119 266.011,163.885 282.686,165.943 284.548 C 167.087 285.584,288.918 285.579,290.062 284.544 C 290.777 283.897,290.799 281.762,290.701 221.837 L 290.600 159.800 228.381 159.699 C 180.320 159.621,166.053 159.707,165.681 160.079 " stroke="none" fill="#08d7cd" fill-rule="evenodd"/><path id="path2" d="M31.244 34.147 C 30.447 35.107,30.615 364.787,31.413 365.584 C 31.965 366.137,49.312 366.203,199.700 366.232 L 367.372 366.264 368.284 365.353 L 369.195 364.441 369.189 199.743 C 369.184 47.901,369.132 34.988,368.530 34.322 C 367.647 33.347,32.052 33.173,31.244 34.147 M334.800 60.157 C 335.350 60.263,336.700 61.268,337.800 62.390 L 339.800 64.431 339.800 199.994 L 339.800 335.557 337.600 337.561 L 335.400 339.564 201.283 339.582 L 67.166 339.600 65.188 337.750 C 63.963 336.604,63.057 335.348,62.807 334.450 C 61.952 331.374,62.300 66.461,63.162 64.600 C 64.107 62.558,66.231 60.555,67.902 60.131 C 69.249 59.789,333.023 59.815,334.800 60.157 M73.699 70.730 C 73.300 70.984,73.219 97.107,73.299 200.024 L 73.400 329.000 201.176 329.101 C 303.133 329.181,329.016 329.100,329.270 328.701 C 329.637 328.123,329.723 71.987,329.357 71.033 C 329.091 70.339,74.790 70.038,73.699 70.730 M229.590 114.219 C 230.577 115.206,230.490 133.282,229.494 134.278 C 228.827 134.945,226.192 134.985,182.414 134.992 C 148.222 134.998,135.920 135.120,135.584 135.456 C 134.796 136.244,135.060 157.290,135.863 157.739 C 136.209 157.933,139.404 158.116,142.964 158.146 C 148.425 158.192,149.605 158.311,150.518 158.909 L 151.600 159.618 151.600 168.980 L 151.600 178.342 150.546 179.171 C 149.577 179.933,148.959 180.000,142.846 180.006 C 139.191 180.009,135.978 180.153,135.707 180.325 C 135.017 180.764,134.946 218.212,135.634 219.041 C 136.026 219.513,142.717 219.600,178.789 219.600 C 223.825 219.600,223.428 219.584,224.443 221.479 C 225.521 223.493,225.226 239.351,224.089 240.489 L 223.178 241.400 169.003 241.400 C 117.530 241.400,114.793 241.364,114.114 240.686 C 113.436 240.007,113.395 236.882,113.304 177.886 C 113.200 110.603,113.090 114.000,115.387 113.602 C 118.742 113.021,228.987 113.616,229.590 114.219 M289.640 158.457 C 292.687 159.480,292.400 152.870,292.400 222.088 C 292.400 285.741,292.415 285.136,290.808 285.996 C 289.073 286.924,165.554 286.531,164.616 285.595 C 163.768 284.747,163.146 271.154,163.797 267.678 C 164.388 264.523,159.269 264.801,216.900 264.794 C 257.482 264.789,268.409 264.682,269.200 264.282 L 270.200 263.775 270.200 253.307 C 270.200 240.708,270.852 241.863,263.586 241.594 C 255.771 241.304,256.288 242.071,256.302 230.787 L 256.313 221.905 257.365 220.852 C 258.383 219.832,258.585 219.796,263.908 219.678 C 268.423 219.577,269.489 219.439,269.900 218.901 C 270.609 217.974,270.628 181.188,269.920 180.480 C 269.552 180.112,257.462 180.000,217.939 180.000 C 179.646 180.000,166.176 179.881,165.417 179.535 C 163.830 178.812,163.539 176.881,163.677 167.985 C 163.813 159.182,163.862 159.012,166.456 158.399 C 168.713 157.866,288.047 157.922,289.640 158.457 " stroke="none" fill="#fbfbfb" fill-rule="evenodd"/><path id="path3" d="M0.000 5.200 L 0.000 10.400 200.000 10.400 L 400.000 10.400 400.000 5.200 L 400.000 0.000 200.000 0.000 L 0.000 0.000 0.000 5.200 M26.784 33.841 C 26.531 34.508,26.391 53.354,26.395 86.341 C 26.402 144.085,26.607 139.600,23.963 139.600 C 22.305 139.600,21.917 139.755,21.329 140.652 C 20.408 142.057,21.663 143.265,23.711 142.945 C 26.720 142.474,26.424 130.673,26.517 254.887 C 26.583 343.123,26.703 366.063,27.100 366.460 C 27.500 366.860,27.600 333.544,27.600 199.880 C 27.600 107.986,27.506 32.800,27.390 32.800 C 27.275 32.800,27.002 33.268,26.784 33.841 M372.314 197.420 C 372.215 386.345,372.177 362.755,372.590 369.910 C 372.913 375.492,372.900 375.642,372.027 376.571 C 370.428 378.273,371.008 379.378,373.579 379.524 C 377.633 379.754,378.446 378.912,376.400 376.600 C 375.854 375.982,375.651 374.865,375.507 371.688 L 375.321 367.576 376.714 365.788 C 379.289 362.483,379.600 363.000,379.600 370.574 C 379.600 377.734,379.861 379.050,381.357 379.425 C 383.728 380.020,384.843 378.350,383.225 376.626 C 382.506 375.860,382.192 372.486,382.374 367.501 C 382.412 366.478,385.139 363.602,385.824 363.864 C 386.294 364.045,386.366 365.125,386.231 369.942 C 386.002 378.090,386.610 379.860,389.520 379.525 C 390.933 379.362,391.250 377.746,390.049 376.830 C 389.287 376.248,389.220 375.750,389.162 370.285 L 389.101 364.369 387.973 363.786 C 387.352 363.465,386.603 362.707,386.306 362.101 C 385.596 360.648,383.765 360.671,382.285 362.152 C 380.968 363.469,380.088 363.484,379.600 362.200 C 379.147 361.008,378.009 360.879,377.719 361.987 C 377.325 363.496,376.054 363.394,374.593 361.735 L 373.241 360.200 373.220 249.943 C 373.200 145.714,373.236 139.672,373.892 139.420 C 374.287 139.268,374.652 139.357,374.742 139.627 C 374.878 140.034,375.359 140.542,376.916 141.920 C 377.090 142.074,377.476 142.553,377.773 142.985 C 378.265 143.700,378.747 143.762,383.196 143.693 L 388.078 143.616 389.639 141.908 C 391.364 140.021,391.544 139.418,390.502 139.018 C 390.025 138.835,389.547 139.073,388.987 139.775 C 388.190 140.775,388.051 140.800,383.251 140.800 L 378.331 140.800 376.966 139.512 C 375.515 138.144,375.035 135.602,376.100 134.933 C 376.375 134.760,379.345 134.672,382.701 134.736 C 389.660 134.870,390.187 134.772,391.004 133.192 C 391.808 131.637,391.982 131.962,388.437 128.389 L 385.274 125.200 381.984 125.200 L 378.694 125.200 376.412 127.620 C 374.522 129.625,374.050 129.943,373.660 129.473 C 373.305 129.045,373.197 117.310,373.218 81.596 C 373.237 48.842,373.116 34.156,372.823 33.863 C 372.526 33.566,372.374 82.166,372.314 197.420 M0.000 126.600 C 0.000 127.979,0.025 128.000,1.700 128.006 C 4.496 128.016,4.518 128.063,4.596 134.244 C 4.662 139.435,4.614 139.811,3.798 140.581 C 1.604 142.652,2.287 143.581,6.078 143.680 C 9.439 143.769,10.006 143.019,8.200 140.873 C 7.237 139.728,7.200 139.478,7.200 134.034 C 7.200 128.553,7.173 128.370,6.295 127.971 C 5.798 127.744,5.086 127.028,4.714 126.379 C 4.105 125.319,3.834 125.200,2.019 125.200 L 0.000 125.200 0.000 126.600 M395.867 125.467 C 395.197 126.136,395.652 127.602,396.700 128.151 L 397.800 128.727 397.665 134.264 C 397.536 139.532,397.481 139.851,396.528 140.860 C 394.956 142.524,395.397 143.376,397.904 143.521 L 400.000 143.642 400.000 134.965 C 400.000 127.170,399.929 126.234,399.300 125.757 C 398.566 125.199,396.324 125.010,395.867 125.467 M386.721 129.235 C 388.605 130.620,388.692 130.835,387.700 131.654 C 386.564 132.592,376.848 132.078,376.242 131.049 C 375.902 130.471,375.926 130.252,376.345 130.100 C 376.644 129.992,377.261 129.475,377.717 128.952 C 379.089 127.374,384.418 127.541,386.721 129.235 M0.700 213.069 C 0.236 213.195,0.000 213.653,0.000 214.429 L 0.000 215.600 4.100 215.594 C 8.633 215.587,9.334 215.359,9.135 213.955 C 9.001 213.009,3.178 212.398,0.700 213.069 M19.043 217.033 C 18.715 217.887,18.784 219.623,19.184 220.600 C 19.688 221.830,20.492 219.495,20.164 217.751 C 19.893 216.302,19.435 216.009,19.043 217.033 M-0.000 220.847 C -0.000 222.789,0.046 222.878,0.900 222.602 C 1.395 222.441,2.584 222.339,3.542 222.374 C 6.060 222.466,7.549 221.448,6.534 220.327 C 5.937 219.668,5.447 219.551,3.897 219.700 C 2.677 219.817,1.743 219.693,1.297 219.354 C 0.168 218.497,0.000 218.691,-0.000 220.847 M20.800 227.181 C 20.800 231.279,20.893 232.000,21.424 232.000 C 21.822 232.000,21.935 231.819,21.736 231.500 C 21.299 230.798,21.568 229.119,22.237 228.369 C 22.910 227.613,22.961 226.721,22.365 226.125 C 22.052 225.812,22.052 225.615,22.365 225.422 C 23.103 224.966,22.824 223.836,21.787 223.081 L 20.800 222.363 20.800 227.181 M0.000 236.200 L 0.000 238.000 2.711 238.000 C 6.173 238.000,7.670 237.183,6.525 235.916 C 5.929 235.257,5.469 235.153,3.944 235.333 C 2.674 235.483,1.852 235.374,1.344 234.989 C 0.182 234.108,0.000 234.272,0.000 236.200 M19.139 235.700 C 19.099 236.525,19.052 237.500,19.033 237.867 C 19.015 238.233,19.225 238.608,19.500 238.700 C 20.110 238.903,20.192 235.716,19.600 234.800 C 19.308 234.348,19.194 234.570,19.139 235.700 M0.700 361.064 C 0.201 361.203,0.000 361.667,0.000 362.680 L 0.000 364.102 2.012 363.908 C 4.632 363.657,4.602 363.577,4.448 370.391 C 4.332 375.538,4.233 376.242,3.559 376.714 C 2.466 377.479,2.565 379.126,3.721 379.416 C 7.520 380.369,10.604 378.665,8.364 376.851 C 7.522 376.169,7.464 375.793,7.385 370.456 C 7.306 365.057,7.257 364.744,6.351 363.892 C 5.828 363.401,5.130 362.604,4.800 362.121 C 4.193 361.233,2.063 360.684,0.700 361.064 M397.101 362.912 C 394.672 365.582,394.630 367.569,396.989 368.162 C 397.637 368.324,398.000 368.695,398.000 369.194 C 398.000 369.858,399.040 370.800,399.774 370.800 C 400.638 370.800,399.904 368.063,398.978 367.830 C 397.543 367.470,397.647 364.279,399.100 364.072 C 399.859 363.964,400.000 363.698,400.000 362.372 C 400.000 360.263,399.412 360.372,397.101 362.912 M38.800 369.109 C 36.824 369.366,36.721 369.487,37.386 370.773 C 38.303 372.545,38.188 375.548,37.162 376.640 C 35.406 378.510,36.906 379.761,40.623 379.525 C 43.062 379.370,43.338 378.620,41.782 376.375 C 40.457 374.462,40.539 371.503,41.948 370.361 C 42.886 369.602,40.945 368.830,38.800 369.109 M58.800 369.207 C 57.829 369.359,57.447 369.605,57.553 370.013 C 57.638 370.336,57.838 371.272,57.998 372.093 C 58.331 373.795,58.936 374.662,60.036 375.011 C 60.456 375.145,60.800 375.437,60.800 375.660 C 60.800 375.883,61.565 376.858,62.500 377.826 L 64.200 379.587 67.642 379.593 L 71.084 379.600 73.161 377.404 C 74.303 376.196,75.565 375.033,75.965 374.819 C 76.447 374.561,76.763 373.809,76.900 372.593 C 77.026 371.471,77.387 370.551,77.828 370.229 C 79.055 369.332,75.817 368.696,73.602 369.399 C 72.860 369.635,72.846 369.729,73.403 370.806 C 74.285 372.512,74.155 373.880,73.042 374.609 C 72.515 374.955,71.992 375.589,71.879 376.019 C 71.499 377.474,64.945 377.158,63.200 375.600 C 62.461 374.940,61.698 374.400,61.506 374.400 C 60.695 374.400,61.382 370.628,62.274 370.185 C 63.455 369.600,60.899 368.880,58.800 369.207 M158.200 369.031 C 157.980 369.085,157.260 369.251,156.600 369.399 L 155.400 369.667 156.300 370.398 C 158.904 372.511,157.269 376.800,153.859 376.800 C 151.580 376.800,150.800 377.104,150.800 377.994 C 150.800 379.459,151.670 379.623,158.853 379.510 L 165.800 379.400 165.800 378.200 C 165.800 377.022,165.755 376.996,163.400 376.798 C 160.147 376.525,160.000 376.382,160.000 373.473 C 160.000 371.387,160.134 370.909,160.839 370.469 C 161.300 370.180,161.585 369.851,161.471 369.737 C 161.182 369.449,158.687 368.910,158.200 369.031 M260.305 369.376 C 258.963 369.769,258.885 369.861,259.548 370.275 C 259.978 370.543,260.373 371.386,260.495 372.296 C 260.662 373.541,261.259 374.438,263.443 376.728 L 266.182 379.600 269.517 379.600 L 272.853 379.600 275.392 377.100 C 276.788 375.725,278.216 374.368,278.565 374.084 C 278.914 373.801,279.201 373.171,279.202 372.684 C 279.204 372.198,279.462 371.308,279.775 370.707 C 280.089 370.105,280.207 369.528,280.038 369.424 C 279.508 369.096,277.054 369.059,275.741 369.358 L 274.482 369.646 275.441 370.605 C 276.593 371.757,276.679 373.342,275.642 374.300 C 272.992 376.748,272.864 376.800,269.553 376.800 C 264.782 376.800,261.746 373.111,264.245 370.350 C 264.847 369.685,264.814 369.621,263.745 369.385 C 263.115 369.247,262.420 369.090,262.200 369.036 C 261.980 368.983,261.127 369.136,260.305 369.376 M48.340 369.468 C 47.775 369.618,47.818 369.781,48.640 370.603 C 50.046 372.010,50.024 375.462,48.600 376.800 C 46.651 378.631,47.413 379.600,50.800 379.600 C 54.056 379.600,55.089 378.309,53.200 376.600 C 52.181 375.678,52.034 371.202,52.996 370.404 C 54.212 369.394,51.029 368.754,48.340 369.468 M84.092 369.468 C 83.748 369.606,83.909 369.928,84.592 370.465 C 85.470 371.155,85.600 371.569,85.600 373.662 C 85.600 375.947,85.684 376.153,87.300 377.826 L 89.000 379.587 92.709 379.593 C 96.274 379.600,96.435 379.561,96.870 378.606 C 97.119 378.059,97.746 377.335,98.262 376.996 C 99.344 376.287,99.484 375.394,98.567 375.043 C 97.505 374.635,97.201 374.760,96.727 375.800 C 96.161 377.042,89.365 377.362,88.394 376.193 C 87.726 375.388,88.133 371.358,88.976 370.426 C 89.320 370.046,89.481 369.615,89.334 369.468 C 89.027 369.161,84.855 369.161,84.092 369.468 M111.200 369.600 C 110.559 369.805,110.447 369.935,110.886 369.960 C 111.897 370.019,112.400 371.270,112.400 373.725 C 112.400 376.514,111.896 376.957,108.993 376.716 C 106.556 376.514,105.851 376.939,106.069 378.478 L 106.200 379.400 113.794 379.400 C 120.493 379.400,121.403 379.323,121.514 378.749 C 121.745 377.555,120.481 376.800,118.251 376.800 C 117.101 376.800,115.944 376.584,115.680 376.320 C 114.999 375.639,115.074 371.559,115.786 370.542 C 116.713 369.217,114.082 368.677,111.200 369.600 M131.493 369.477 C 130.845 369.646,130.854 369.716,131.612 370.331 C 133.920 372.201,133.033 376.117,130.169 376.708 C 128.865 376.977,128.579 377.213,128.475 378.102 C 128.310 379.514,128.831 379.614,135.800 379.495 L 141.400 379.400 141.400 378.200 C 141.400 377.003,141.394 377.000,138.815 376.879 C 137.394 376.812,135.980 376.549,135.673 376.295 C 134.886 375.642,135.220 371.482,136.142 370.464 C 137.160 369.339,134.330 368.738,131.493 369.477 M168.400 369.585 L 166.600 369.849 168.159 370.025 C 169.865 370.216,170.238 370.654,170.592 372.877 C 170.742 373.820,171.093 374.439,171.559 374.587 C 171.961 374.715,173.153 375.895,174.208 377.210 L 176.125 379.600 180.926 379.600 L 185.727 379.600 187.450 377.724 C 188.760 376.296,189.068 375.723,188.737 375.324 C 188.126 374.588,187.792 374.661,186.562 375.800 C 184.724 377.503,177.531 377.312,175.251 375.500 C 173.255 373.913,172.967 371.032,174.719 370.163 C 176.446 369.307,172.654 368.959,168.400 369.585 M192.852 369.493 C 191.536 369.654,191.525 369.672,192.352 370.252 C 193.063 370.749,193.200 371.252,193.200 373.357 C 193.200 375.584,193.324 375.982,194.300 376.879 C 194.905 377.436,195.713 378.276,196.096 378.746 C 196.701 379.488,197.208 379.600,199.980 379.600 C 203.189 379.600,203.390 379.522,204.562 377.827 C 205.079 377.079,205.151 377.095,206.827 378.327 C 208.551 379.595,209.364 379.819,210.567 379.357 C 211.530 378.988,211.333 377.379,210.237 376.661 C 208.645 375.618,209.219 370.038,210.927 369.960 C 211.736 369.923,211.727 369.897,210.800 369.600 C 209.787 369.276,195.333 369.189,192.852 369.493 M214.200 369.600 C 213.535 369.886,213.515 369.949,214.086 369.972 C 214.993 370.009,215.600 371.213,215.600 372.974 C 215.600 373.758,215.754 374.400,215.942 374.400 C 216.129 374.400,217.459 375.570,218.896 377.000 L 221.509 379.600 226.158 379.600 C 230.452 379.600,230.861 379.533,231.504 378.730 C 231.887 378.252,232.695 377.388,233.301 376.811 C 234.158 375.994,234.295 375.655,233.921 375.281 C 233.173 374.533,232.107 374.712,231.416 375.700 C 230.837 376.527,230.422 376.611,226.275 376.732 L 221.763 376.865 220.082 375.233 C 218.279 373.484,218.062 372.613,218.984 370.831 C 219.305 370.210,219.455 369.589,219.317 369.451 C 218.952 369.086,215.138 369.197,214.200 369.600 M233.200 369.600 L 219.800 369.816 233.057 369.908 C 248.127 370.013,246.800 369.634,246.800 373.825 C 246.800 376.712,246.820 376.696,243.000 376.895 C 241.068 376.996,241.000 377.041,241.000 378.200 L 241.000 379.400 247.600 379.501 C 255.622 379.624,256.093 379.544,255.925 378.086 C 255.806 377.056,255.677 376.994,253.414 376.877 C 250.289 376.717,250.000 376.425,250.000 373.431 C 250.000 370.659,250.398 370.023,252.180 369.950 C 253.164 369.910,253.051 369.838,251.600 369.580 C 250.610 369.403,249.080 369.287,248.200 369.322 C 247.320 369.356,240.570 369.481,233.200 369.600 M284.046 369.563 C 283.603 369.843,283.664 370.006,284.346 370.371 C 285.568 371.025,285.606 375.508,284.400 376.600 C 282.511 378.309,283.544 379.600,286.800 379.600 C 290.228 379.600,290.750 378.953,289.000 376.873 C 287.700 375.328,287.598 372.219,288.796 370.695 C 289.494 369.808,289.515 369.653,288.964 369.441 C 288.021 369.080,284.679 369.162,284.046 369.563 M295.427 369.490 C 294.688 369.678,294.692 369.715,295.535 370.351 C 297.022 371.472,297.174 374.694,295.817 376.307 C 293.884 378.604,294.446 379.400,298.000 379.400 C 301.466 379.400,302.503 378.072,300.211 376.570 C 299.039 375.802,299.076 371.718,300.268 370.349 C 301.161 369.324,298.166 368.792,295.427 369.490 M307.400 369.600 L 301.000 369.831 307.238 369.915 C 314.128 370.009,313.851 369.907,315.368 372.902 C 316.088 374.325,316.535 374.526,316.634 373.472 C 316.658 373.212,316.706 372.496,316.739 371.881 C 316.785 371.035,317.104 370.634,318.042 370.239 L 319.284 369.717 317.992 369.458 C 317.281 369.316,316.048 369.238,315.250 369.285 C 314.453 369.331,310.920 369.473,307.400 369.600 M329.276 369.473 C 328.864 369.638,328.892 369.839,329.406 370.406 C 329.935 370.991,330.078 372.189,330.150 376.665 L 330.239 382.200 329.066 383.726 C 327.576 385.662,327.954 386.089,331.280 386.229 C 334.909 386.382,335.668 385.492,333.800 383.273 C 333.056 382.389,332.800 381.622,332.800 380.275 C 332.800 376.935,333.542 376.386,335.337 378.400 C 337.100 380.378,339.797 380.156,342.185 377.836 C 343.183 376.865,344.000 375.906,344.000 375.703 C 344.000 375.501,344.455 375.092,345.010 374.795 C 345.719 374.415,346.204 373.620,346.638 372.127 C 347.254 370.010,347.265 370.000,348.928 369.949 C 350.294 369.907,350.098 369.828,347.861 369.519 C 346.137 369.281,344.209 369.281,342.661 369.519 C 340.775 369.810,340.540 369.910,341.653 369.949 C 344.165 370.037,344.427 373.221,342.100 375.384 C 338.150 379.056,329.975 374.389,333.749 370.615 C 334.697 369.666,334.697 369.666,333.849 369.439 C 332.819 369.162,329.999 369.184,329.276 369.473 M363.099 369.435 C 362.950 369.583,363.092 370.081,363.414 370.542 C 364.511 372.107,364.207 376.333,362.976 376.642 C 360.547 377.251,358.525 376.595,356.151 374.425 C 353.412 371.921,352.878 372.145,352.732 375.859 C 352.609 378.965,353.264 380.041,354.560 378.863 C 356.364 377.224,357.104 377.090,357.680 378.298 C 358.447 379.905,364.000 380.181,364.000 378.613 C 364.000 378.298,364.609 377.576,365.354 377.008 C 366.576 376.076,366.730 375.731,366.924 373.487 C 367.042 372.119,367.198 370.640,367.270 370.200 C 367.402 369.387,363.807 368.727,363.099 369.435 M44.505 369.887 C 45.114 369.979,46.014 369.977,46.505 369.882 C 46.997 369.787,46.500 369.711,45.400 369.714 C 44.300 369.717,43.897 369.795,44.505 369.887 M54.900 369.876 C 55.285 369.976,55.915 369.976,56.300 369.876 C 56.685 369.775,56.370 369.693,55.600 369.693 C 54.830 369.693,54.515 369.775,54.900 369.876 M66.115 369.896 C 67.388 369.976,69.368 369.975,70.515 369.894 C 71.662 369.814,70.620 369.749,68.200 369.750 C 65.780 369.751,64.842 369.816,66.115 369.896 M80.700 369.882 C 81.195 369.978,82.005 369.978,82.500 369.882 C 82.995 369.787,82.590 369.709,81.600 369.709 C 80.610 369.709,80.205 369.787,80.700 369.882 M95.100 369.899 C 97.795 369.968,102.205 369.968,104.900 369.899 C 107.595 369.830,105.390 369.773,100.000 369.773 C 94.610 369.773,92.405 369.830,95.100 369.899 M120.120 369.898 C 122.055 369.972,125.115 369.971,126.920 369.897 C 128.724 369.823,127.140 369.763,123.400 369.764 C 119.660 369.764,118.184 369.825,120.120 369.898 M141.500 369.899 C 143.975 369.969,148.025 369.969,150.500 369.899 C 152.975 369.828,150.950 369.771,146.000 369.771 C 141.050 369.771,139.025 369.828,141.500 369.899 M163.305 369.887 C 163.914 369.979,164.814 369.977,165.305 369.882 C 165.797 369.787,165.300 369.711,164.200 369.714 C 163.100 369.717,162.697 369.795,163.305 369.887 M180.920 369.898 C 182.855 369.972,185.915 369.971,187.720 369.897 C 189.524 369.823,187.940 369.763,184.200 369.764 C 180.460 369.764,178.984 369.825,180.920 369.898 M255.305 369.887 C 255.914 369.979,256.814 369.977,257.305 369.882 C 257.797 369.787,257.300 369.711,256.200 369.714 C 255.100 369.717,254.697 369.795,255.305 369.887 M267.312 369.895 C 268.364 369.977,269.984 369.976,270.912 369.892 C 271.840 369.808,270.980 369.741,269.000 369.742 C 267.020 369.743,266.260 369.812,267.312 369.895 M291.300 369.887 C 291.905 369.978,292.895 369.978,293.500 369.887 C 294.105 369.795,293.610 369.720,292.400 369.720 C 291.190 369.720,290.695 369.795,291.300 369.887 M322.713 369.895 C 323.876 369.976,325.676 369.976,326.713 369.893 C 327.751 369.811,326.800 369.745,324.600 369.746 C 322.400 369.747,321.551 369.814,322.713 369.895 M337.505 369.883 C 338.002 369.979,338.722 369.975,339.105 369.875 C 339.487 369.775,339.080 369.696,338.200 369.701 C 337.320 369.705,337.007 369.787,337.505 369.883 M206.396 371.592 C 206.982 372.687,206.511 374.236,205.362 374.988 C 204.833 375.335,204.400 375.884,204.400 376.209 C 204.400 377.075,197.121 377.069,196.402 376.202 C 195.796 375.472,195.788 372.743,196.389 371.621 C 197.049 370.387,205.737 370.362,206.396 371.592 M395.680 375.280 C 394.109 376.851,395.840 379.600,398.400 379.600 C 399.962 379.600,400.000 379.567,400.000 378.200 C 400.000 377.307,399.809 376.800,399.472 376.800 C 399.182 376.800,398.553 376.350,398.075 375.800 C 397.119 374.701,396.413 374.547,395.680 375.280 M21.500 375.516 C 21.030 375.612,20.800 376.034,20.800 376.802 C 20.800 378.044,21.039 378.176,24.000 378.575 C 25.536 378.782,25.875 378.697,26.314 377.992 C 27.401 376.245,24.711 374.861,21.500 375.516 M317.600 377.813 C 317.600 379.271,317.775 380.400,318.000 380.400 C 318.220 380.400,318.402 379.725,318.405 378.900 C 318.408 378.075,318.513 377.020,318.638 376.555 C 318.787 376.000,318.648 375.627,318.232 375.468 C 317.696 375.262,317.600 375.618,317.600 377.813 M0.000 394.000 L 0.000 400.000 200.000 400.000 L 400.000 400.000 400.000 394.000 L 400.000 388.000 200.000 388.000 L 0.000 388.000 0.000 394.000 " stroke="none" fill="#737474" fill-rule="evenodd"/><path id="path4" d="M31.704 32.682 C 31.210 32.777,30.535 33.242,30.204 33.716 C 29.417 34.839,29.269 364.036,30.054 365.759 C 30.304 366.307,30.770 366.857,31.091 366.979 C 32.171 367.394,368.009 367.223,368.785 366.808 C 369.187 366.593,369.708 365.866,369.943 365.193 C 370.571 363.390,370.557 35.582,369.928 34.202 C 369.640 33.569,368.947 33.056,368.036 32.803 C 366.634 32.414,33.717 32.294,31.704 32.682 M368.530 34.322 C 369.132 34.988,369.184 47.901,369.189 199.743 L 369.195 364.441 368.284 365.353 L 367.372 366.264 199.700 366.232 C 49.312 366.203,31.965 366.137,31.413 365.584 C 30.615 364.787,30.447 35.107,31.244 34.147 C 32.052 33.173,367.647 33.347,368.530 34.322 M67.902 60.131 C 66.231 60.555,64.107 62.558,63.162 64.600 C 62.300 66.461,61.952 331.374,62.807 334.450 C 63.057 335.348,63.963 336.604,65.188 337.750 L 67.166 339.600 201.283 339.582 L 335.400 339.564 337.600 337.561 L 339.800 335.557 339.800 199.994 L 339.800 64.431 337.800 62.390 C 336.700 61.268,335.350 60.263,334.800 60.157 C 333.023 59.815,69.249 59.789,67.902 60.131 M336.669 63.418 L 338.800 65.636 338.800 200.019 L 338.800 334.401 336.500 336.592 L 334.200 338.783 201.343 338.792 L 68.487 338.800 66.243 336.914 L 64.000 335.028 64.000 200.085 L 64.000 65.143 65.900 63.187 L 67.800 61.232 201.169 61.216 L 334.537 61.200 336.669 63.418 M73.017 69.700 L 71.989 70.600 71.990 199.962 C 71.990 271.111,72.038 329.350,72.095 329.383 C 72.153 329.415,72.689 329.748,73.286 330.121 C 74.301 330.756,82.634 330.800,201.716 330.800 L 329.061 330.800 329.930 329.874 L 330.800 328.948 330.800 200.058 L 330.800 71.168 329.925 69.984 L 329.050 68.800 201.547 68.800 L 74.045 68.800 73.017 69.700 M329.357 71.033 C 329.723 71.987,329.637 328.123,329.270 328.701 C 329.016 329.100,303.133 329.181,201.176 329.101 L 73.400 329.000 73.299 200.024 C 73.219 97.107,73.300 70.984,73.699 70.730 C 74.790 70.038,329.091 70.339,329.357 71.033 M115.387 113.602 C 113.090 114.000,113.200 110.603,113.304 177.886 C 113.395 236.882,113.436 240.007,114.114 240.686 C 114.793 241.364,117.530 241.400,169.003 241.400 L 223.178 241.400 224.089 240.489 C 225.226 239.351,225.521 223.493,224.443 221.479 C 223.428 219.584,223.825 219.600,178.789 219.600 C 142.717 219.600,136.026 219.513,135.634 219.041 C 134.946 218.212,135.017 180.764,135.707 180.325 C 135.978 180.153,139.191 180.009,142.846 180.006 C 148.959 180.000,149.577 179.933,150.546 179.171 L 151.600 178.342 151.600 168.980 L 151.600 159.618 150.518 158.909 C 149.605 158.311,148.425 158.192,142.964 158.146 C 139.404 158.116,136.209 157.933,135.863 157.739 C 135.060 157.290,134.796 136.244,135.584 135.456 C 135.920 135.120,148.222 134.998,182.414 134.992 C 226.192 134.985,228.827 134.945,229.494 134.278 C 230.490 133.282,230.577 115.206,229.590 114.219 C 228.987 113.616,118.742 113.021,115.387 113.602 M228.771 115.454 C 230.293 117.389,229.952 131.442,228.340 133.172 C 227.569 134.000,227.560 134.000,181.884 134.005 C 156.758 134.008,135.803 134.117,135.317 134.248 C 133.927 134.620,133.710 136.254,133.638 146.892 C 133.546 160.497,132.898 159.600,142.819 159.600 C 151.108 159.600,150.400 158.723,150.400 169.000 C 150.400 179.278,151.108 178.400,142.817 178.400 C 136.133 178.400,136.048 178.411,134.831 179.436 L 133.600 180.471 133.600 199.222 C 133.600 219.624,133.683 220.433,135.838 220.974 C 136.342 221.100,156.039 221.248,179.610 221.302 C 221.944 221.399,222.472 221.410,223.052 222.200 C 224.053 223.562,223.676 239.064,222.624 239.833 C 221.344 240.767,116.166 240.675,115.131 239.738 C 114.050 238.759,113.981 116.326,115.062 115.131 C 115.697 114.429,117.983 114.400,171.833 114.400 L 227.942 114.400 228.771 115.454 M166.456 158.399 C 163.862 159.012,163.813 159.182,163.677 167.985 C 163.539 176.881,163.830 178.812,165.417 179.535 C 166.176 179.881,179.646 180.000,217.939 180.000 C 257.462 180.000,269.552 180.112,269.920 180.480 C 270.628 181.188,270.609 217.974,269.900 218.901 C 269.489 219.439,268.423 219.577,263.908 219.678 C 258.585 219.796,258.383 219.832,257.365 220.852 L 256.313 221.905 256.302 230.787 C 256.288 242.071,255.771 241.304,263.586 241.594 C 270.852 241.863,270.200 240.708,270.200 253.307 L 270.200 263.775 269.200 264.282 C 268.409 264.682,257.482 264.789,216.900 264.794 C 159.269 264.801,164.388 264.523,163.797 267.678 C 163.146 271.154,163.768 284.747,164.616 285.595 C 165.554 286.531,289.073 286.924,290.808 285.996 C 292.415 285.136,292.400 285.741,292.400 222.088 C 292.400 152.870,292.687 159.480,289.640 158.457 C 288.047 157.922,168.713 157.866,166.456 158.399 M290.701 221.837 C 290.799 281.762,290.777 283.897,290.062 284.544 C 288.918 285.579,167.087 285.584,165.943 284.548 C 163.885 282.686,165.119 266.011,167.316 265.997 C 167.582 265.995,190.879 265.950,219.086 265.897 C 267.720 265.805,270.408 265.763,271.086 265.085 C 272.016 264.154,272.197 242.037,271.281 241.120 C 270.922 240.760,268.927 240.538,264.799 240.400 C 257.161 240.144,257.800 241.020,257.800 230.799 C 257.800 220.628,257.236 221.458,264.319 221.200 C 272.804 220.890,271.988 223.216,271.995 199.320 L 272.000 180.441 270.662 179.420 L 269.324 178.400 217.891 178.400 C 171.666 178.400,166.393 178.336,165.829 177.771 C 165.013 176.956,164.879 160.881,165.681 160.079 C 166.053 159.707,180.320 159.621,228.381 159.699 L 290.600 159.800 290.701 221.837 " stroke="none" fill="#9df1ea" fill-rule="evenodd"/></g></svg>