<svg xmlns="http://www.w3.org/2000/svg" width="30" height="30" viewBox="0 0 30 30">
  <g data-name="Grupo 205" transform="translate(26 6)">
    <g id="Grupo_204" data-name="Grupo 204">
      <path data-name="Trazado 767" d="M445.734,102.4a2,2,0,1,0,2,2A2,2,0,0,0,445.734,102.4Zm0,3a1,1,0,1,1,1-1A1,1,0,0,1,445.734,105.4Z" transform="translate(-443.734 -102.4)" fill="#0f596b"/>
    </g>
  </g>
  <g  data-name="Grupo 207" transform="translate(0 22.5)">
    <g  data-name="Grupo 206">
      <path data-name="Trazado 768" d="M2,384a2,2,0,1,0,2,2A2,2,0,0,0,2,384Zm0,3a1,1,0,1,1,1-1A1,1,0,0,1,2,387Z" transform="translate(0 -384)" fill="#0f596b"/>
    </g>
  </g>
  <g  data-name="Grupo 209" transform="translate(22 4.5)">
    <g  data-name="Grupo 208">
      <path data-name="Trazado 769" d="M380.493,78.924l-4.313-2.082a.5.5,0,1,0-.434.9l4.314,2.082a.5.5,0,0,0,.434-.9Z" transform="translate(-375.463 -76.792)" fill="#0f596b"/>
    </g>
  </g>
  <g data-name="Grupo 211" transform="translate(20.5 26)">
    <g data-name="Grupo 210">
      <path data-name="Trazado 770" d="M351.867,443.733a2,2,0,1,0,2,2A2,2,0,0,0,351.867,443.733Zm0,3a1,1,0,1,1,1-1A1,1,0,0,1,351.867,446.733Z" transform="translate(-349.867 -443.733)" fill="#0f596b"/>
    </g>
  </g>
  <g data-name="Grupo 213" transform="translate(16.5 24.499)">
    <g data-name="Grupo 212">
      <path data-name="Trazado 771" d="M286.626,420.257l-4.313-2.082a.5.5,0,0,0-.434.9l4.314,2.082a.5.5,0,0,0,.434-.9Z" transform="translate(-281.596 -418.124)" fill="#0f596b"/>
    </g>
  </g>
  <g data-name="Grupo 215" transform="translate(13 13.5)">
    <g data-name="Grupo 214">
      <path data-name="Trazado 772" d="M223.867,230.4a2,2,0,1,0,2,2A2,2,0,0,0,223.867,230.4Zm0,3a1,1,0,1,1,1-1A1,1,0,0,1,223.867,233.4Z" transform="translate(-221.867 -230.4)" fill="#0f596b"/>
    </g>
  </g>
  <g data-name="Grupo 217" transform="translate(10 11.5)">
    <g data-name="Grupo 216">
      <path data-name="Trazado 773" d="M174.786,198.959l-3.313-2.583a.5.5,0,0,0-.615.789l3.313,2.583a.5.5,0,1,0,.615-.789Z" transform="translate(-170.664 -196.272)" fill="#0f596b"/>
    </g>
  </g>
  <g data-name="Grupo 219" transform="translate(18.5 13)">
    <g data-name="Grupo 218">
      <path data-name="Trazado 774" d="M321.233,221.867a5.5,5.5,0,1,0,5.5,5.5A5.507,5.507,0,0,0,321.233,221.867Zm0,10a4.5,4.5,0,1,1,4.5-4.5A4.5,4.5,0,0,1,321.233,231.867Z" transform="translate(-315.733 -221.867)" fill="#0f596b"/>
    </g>
  </g>
  <g data-name="Grupo 221" transform="translate(22 15)">
    <g data-name="Grupo 220">
      <path data-name="Trazado 775" d="M377.467,256a2,2,0,1,0,2,2A2,2,0,0,0,377.467,256Zm0,3a1,1,0,1,1,1-1A1,1,0,0,1,377.467,259Z" transform="translate(-375.467 -256)" fill="#0f596b"/>
    </g>
  </g>
  <g data-name="Grupo 223" transform="translate(21 20)">
    <g data-name="Grupo 222">
      <path data-name="Trazado 776" d="M362.85,341.333h-2.9a1.531,1.531,0,0,0-1.55,1.508v1.318a.5.5,0,0,0,.249.433,5.472,5.472,0,0,0,5.5,0,.5.5,0,0,0,.249-.432v-1.318A1.531,1.531,0,0,0,362.85,341.333Zm.549,2.527a4.534,4.534,0,0,1-4,0v-1.02a.531.531,0,0,1,.549-.508h2.9a.531.531,0,0,1,.549.508v1.02Z" transform="translate(-358.4 -341.333)" fill="#0f596b"/>
    </g>
  </g>
  <g data-name="Grupo 225" transform="translate(6.5 19)">
    <g data-name="Grupo 224">
      <path data-name="Trazado 777" d="M116.433,324.267a5.5,5.5,0,1,0,5.5,5.5A5.507,5.507,0,0,0,116.433,324.267Zm0,10a4.5,4.5,0,1,1,4.5-4.5A4.5,4.5,0,0,1,116.433,334.267Z" transform="translate(-110.933 -324.267)" fill="#0f596b"/>
    </g>
  </g>
  <g data-name="Grupo 227" transform="translate(10 21)">
    <g data-name="Grupo 226">
      <path data-name="Trazado 778" d="M172.667,358.4a2,2,0,1,0,2,2A2,2,0,0,0,172.667,358.4Zm0,3a1,1,0,1,1,1-1A1,1,0,0,1,172.667,361.4Z" transform="translate(-170.667 -358.4)" fill="#0f596b"/>
    </g>
  </g>
  <g data-name="Grupo 229" transform="translate(9 26)">
    <g data-name="Grupo 228">
      <path data-name="Trazado 779" d="M158.051,443.733h-2.9a1.531,1.531,0,0,0-1.549,1.508v1.318a.5.5,0,0,0,.249.433,5.472,5.472,0,0,0,5.5,0,.5.5,0,0,0,.249-.432v-1.318A1.531,1.531,0,0,0,158.051,443.733Zm.549,2.527a4.534,4.534,0,0,1-4,0v-1.019a.531.531,0,0,1,.549-.508h2.9a.531.531,0,0,1,.549.508v1.019Z" transform="translate(-153.6 -443.733)" fill="#0f596b"/>
    </g>
  </g>
  <g data-name="Grupo 231" transform="translate(0 6.5)">
    <g data-name="Grupo 230">
      <path data-name="Trazado 780" d="M5.5,110.933a5.5,5.5,0,1,0,5.5,5.5A5.507,5.507,0,0,0,5.5,110.933Zm0,10a4.5,4.5,0,1,1,4.5-4.5A4.5,4.5,0,0,1,5.5,120.933Z" transform="translate(0 -110.933)" fill="#0f596b"/>
    </g>
  </g>
  <g data-name="Grupo 233" transform="translate(3.5 8.5)">
    <g data-name="Grupo 232">
      <path data-name="Trazado 781" d="M61.734,145.067a2,2,0,1,0,2,2A2,2,0,0,0,61.734,145.067Zm0,3a1,1,0,1,1,1-1A1,1,0,0,1,61.734,148.067Z" transform="translate(-59.734 -145.067)" fill="#0f596b"/>
    </g>
  </g>
  <g data-name="Grupo 235" transform="translate(2.5 13.5)">
    <g data-name="Grupo 234">
      <path data-name="Trazado 782" d="M47.117,230.4h-2.9a1.531,1.531,0,0,0-1.55,1.508v1.318a.5.5,0,0,0,.249.433,5.472,5.472,0,0,0,5.5,0,.5.5,0,0,0,.249-.432v-1.318A1.531,1.531,0,0,0,47.117,230.4Zm.549,2.528a4.534,4.534,0,0,1-4,0v-1.019a.531.531,0,0,1,.549-.508h2.9a.531.531,0,0,1,.549.508v1.019Z" transform="translate(-42.667 -230.4)" fill="#0f596b"/>
    </g>
  </g>
  <g data-name="Grupo 237" transform="translate(12)">
    <g data-name="Grupo 236">
      <path data-name="Trazado 783" d="M210.3,0a5.5,5.5,0,1,0,5.5,5.5A5.507,5.507,0,0,0,210.3,0Zm0,10a4.5,4.5,0,1,1,4.5-4.5A4.5,4.5,0,0,1,210.3,10Z" transform="translate(-204.8)" fill="#0f596b"/>
    </g>
  </g>
  <g data-name="Grupo 239" transform="translate(15.5 2)">
    <g data-name="Grupo 238">
      <path data-name="Trazado 784" d="M266.534,34.133a2,2,0,1,0,2,2A2,2,0,0,0,266.534,34.133Zm0,3a1,1,0,1,1,1-1A1,1,0,0,1,266.534,37.133Z" transform="translate(-264.534 -34.133)" fill="#0f596b"/>
    </g>
  </g>
  <g data-name="Grupo 241" transform="translate(14.5 7)">
    <g data-name="Grupo 240">
      <path data-name="Trazado 785" d="M251.917,119.467h-2.9a1.531,1.531,0,0,0-1.55,1.507v1.318a.5.5,0,0,0,.249.433,5.472,5.472,0,0,0,5.5,0,.5.5,0,0,0,.249-.432v-1.318A1.531,1.531,0,0,0,251.917,119.467Zm.549,2.527a4.534,4.534,0,0,1-4,0v-1.019a.531.531,0,0,1,.549-.508h2.9a.531.531,0,0,1,.549.508v1.019Z" transform="translate(-247.467 -119.467)" fill="#0f596b"/>
    </g>
  </g>
  <g data-name="Grupo 243" transform="translate(8.535 5)">
    <g data-name="Grupo 242">
      <path data-name="Trazado 786" d="M150.016,85.508a.5.5,0,0,0-.7-.055l-3.465,2.965a.5.5,0,1,0,.65.759l3.465-2.965A.5.5,0,0,0,150.016,85.508Z" transform="translate(-145.671 -85.333)" fill="#0f596b"/>
    </g>
  </g>
  <g data-name="Grupo 245" transform="translate(20 9.001)">
    <g data-name="Grupo 244">
      <path data-name="Trazado 787" d="M345.233,157.81l-3-4a.5.5,0,0,0-.8.6l3,4a.5.5,0,0,0,.8-.6Z" transform="translate(-341.333 -153.61)" fill="#0f596b"/>
    </g>
  </g>
  <g data-name="Grupo 247" transform="translate(16.103 19.954)">
    <g data-name="Grupo 246">
      <path data-name="Trazado 788" d="M278.526,340.74a.5.5,0,0,0-.7-.1l-2.793,2.094a.5.5,0,0,0,.6.8l2.793-2.094A.5.5,0,0,0,278.526,340.74Z" transform="translate(-274.833 -340.54)" fill="#0f596b"/>
    </g>
  </g>
  <g data-name="Grupo 249" transform="translate(3 24)">
    <g data-name="Grupo 248">
      <path data-name="Trazado 789" d="M55.2,409.6H51.7a.5.5,0,1,0,0,1h3.5a.5.5,0,0,0,0-1Z" transform="translate(-51.2 -409.6)" fill="#0f596b"/>
    </g>
  </g>
  <g data-name="Grupo 251" transform="translate(3.5)">
    <g data-name="Grupo 250">
      <path data-name="Trazado 790" d="M61.733,0a2,2,0,1,0,2,2A2,2,0,0,0,61.733,0Zm0,3a1,1,0,1,1,1-1A1,1,0,0,1,61.733,3Z" transform="translate(-59.733)" fill="#0f596b"/>
    </g>
  </g>
  <g data-name="Grupo 253" transform="translate(5 3)">
    <g data-name="Grupo 252">
      <path data-name="Trazado 791" d="M85.834,51.2a.5.5,0,0,0-.5.5v3.5a.5.5,0,1,0,1,0V51.7A.5.5,0,0,0,85.834,51.2Z" transform="translate(-85.334 -51.2)" fill="#0f596b"/>
    </g>
  </g>
</svg>
