<svg xmlns="http://www.w3.org/2000/svg" width="11.647" height="12.667" viewBox="0 0 11.647 12.667"><defs><style>.a{fill:#b40d04;}</style></defs><g transform="translate(-31.876 6.371)"><path class="a" d="M43.215,13.519a.308.308,0,0,0-.308.308v3.592H32.491V13.826a.308.308,0,1,0-.615,0v3.9a.308.308,0,0,0,.308.308H43.215a.308.308,0,0,0,.308-.308v-3.9A.308.308,0,0,0,43.215,13.519Z" transform="translate(0 -11.733)"/><path class="a" d="M41.629,4.166a.305.305,0,0,0,.215.087.309.309,0,0,0,.217-.088L44.726,1.5a.308.308,0,0,0-.062-.431.313.313,0,0,0-.381.009L42.152,3.21V-6.063a.308.308,0,0,0-.308-.308.308.308,0,0,0-.308.308V3.2l-2.142-2.14a.31.31,0,0,0-.228-.059.307.307,0,0,0-.2.12.313.313,0,0,0,.009.38Z" transform="translate(-4.145)"/></g></svg>