<svg xmlns="http://www.w3.org/2000/svg" width="11.838" height="15.461" viewBox="0 0 11.838 15.461"><defs><style>.a{fill:#fff;}</style></defs><g transform="translate(3.956 3.956)"><path class="a" d="M192.963,131a1.963,1.963,0,1,0,1.963,1.963A1.965,1.965,0,0,0,192.963,131Zm0,3.02a1.057,1.057,0,1,1,1.057-1.057A1.058,1.058,0,0,1,192.963,134.02Z" transform="translate(-191 -131)"/></g><g transform="translate(0)"><path class="a" d="M65.919,0A5.917,5.917,0,0,0,61.2,9.5l4.459,5.966h.514L70.635,9.5A5.919,5.919,0,0,0,65.919,0Zm4.337,8.434a5.038,5.038,0,0,1-.344.515l-3.994,5.343-3.992-5.34,0,0a5.012,5.012,0,1,1,8.331-.515Z" transform="translate(-60 0)"/></g></svg>