<svg xmlns="http://www.w3.org/2000/svg" width="27.11" height="27.11" viewBox="0 0 27.11 27.11"><defs><style>.a{fill:#FFFFFF;}</style></defs><g transform="translate(-0.006)"><g transform="translate(0.006)"><g transform="translate(0)"><path class="a" d="M26.859,25.635l-7-6.888a11.071,11.071,0,0,0,2.959-7.523A11.317,11.317,0,0,0,11.412,0,11.316,11.316,0,0,0,.006,11.225,11.316,11.316,0,0,0,11.412,22.449a11.471,11.471,0,0,0,7.179-2.507l7.027,6.915a.887.887,0,0,0,1.241,0A.855.855,0,0,0,26.859,25.635ZM11.412,20.722a9.575,9.575,0,0,1-9.651-9.5,9.575,9.575,0,0,1,9.651-9.5,9.575,9.575,0,0,1,9.651,9.5A9.575,9.575,0,0,1,11.412,20.722Z" transform="translate(-0.006)"/></g></g></g></svg>