<svg xmlns="http://www.w3.org/2000/svg" width="17.492" height="12.776" viewBox="0 0 17.492 12.776"><defs><style>.a{fill:#606060;stroke:#606060;stroke-width:0.1px;}</style></defs><g transform="translate(0.1 0.1)"><path class="a" d="M15.72,69.818H1.572A1.572,1.572,0,0,0,0,71.39v9.432a1.572,1.572,0,0,0,1.572,1.572H15.72a1.572,1.572,0,0,0,1.572-1.572V71.39A1.572,1.572,0,0,0,15.72,69.818ZM1.572,70.6H15.72a.787.787,0,0,1,.263.047l-6.8,6.8a.751.751,0,0,1-1.062,0l0,0-6.807-6.8A.786.786,0,0,1,1.572,70.6ZM.786,80.822V71.39a.786.786,0,0,1,0-.138l4.865,4.854L.786,80.96A.786.786,0,0,1,.786,80.822Zm14.934.786H1.572a.787.787,0,0,1-.263-.047l4.9-4.9,1.348,1.348a1.537,1.537,0,0,0,2.173,0l0,0,1.348-1.348,4.9,4.9A.786.786,0,0,1,15.72,81.608Zm.786-.648-4.865-4.854,4.865-4.854a.787.787,0,0,1,0,.138v9.432A.786.786,0,0,1,16.506,80.96Z" transform="translate(0 -69.818)"/></g></svg>