<svg xmlns="http://www.w3.org/2000/svg" width="19.74" height="12.439" viewBox="0 0 19.74 12.439">
  <path id="camara-de-video" d="M19.536,1.109a.419.419,0,0,0-.414-.008L14.593,3.575V2.091A2.093,2.093,0,0,0,12.5,0H2.092A2.093,2.093,0,0,0,0,2.091v8.257a2.093,2.093,0,0,0,2.091,2.091H12.5a2.093,2.093,0,0,0,2.091-2.091V8.891l4.529,2.473A.418.418,0,0,0,19.741,11V1.469a.418.418,0,0,0-.2-.36Zm-5.78,9.239A1.256,1.256,0,0,1,12.5,11.6H2.092A1.256,1.256,0,0,1,.837,10.348V2.091A1.256,1.256,0,0,1,2.092.836H12.5a1.256,1.256,0,0,1,1.255,1.255Zm5.148-.056L14.593,7.938V4.528L18.9,2.174Zm0,0" transform="translate(-0.001 0)" fill="#606060"/>
</svg>
