<svg xmlns="http://www.w3.org/2000/svg" width="74.25" height="69.303" viewBox="0 0 74.25 69.303">
  <g id="volumen" transform="translate(0 -15.99)">
    <path id="Trazado_2484" data-name="Trazado 2484" d="M43.149,16.236a2.467,2.467,0,0,0-2.619.3L16.454,35.793H4.95A4.958,4.958,0,0,0,0,40.743v19.8a4.955,4.955,0,0,0,4.95,4.95h11.5l24.072,19.26a2.479,2.479,0,0,0,2.623.292,2.47,2.47,0,0,0,1.4-2.228V18.468A2.483,2.483,0,0,0,43.149,16.236Z" fill="#333"/>
    <path id="Trazado_2485" data-name="Trazado 2485" d="M345.965,122.965a2.476,2.476,0,0,0-3.48,3.524,19.742,19.742,0,0,1,0,27.958,2.473,2.473,0,1,0,3.48,3.514,24.69,24.69,0,0,0,0-35Z" transform="translate(-288.887 -89.825)" fill="#333"/>
    <path id="Trazado_2486" data-name="Trazado 2486" d="M391.087,77.843a2.476,2.476,0,1,0-3.49,3.514,29.536,29.536,0,0,1,0,41.922,2.476,2.476,0,0,0,3.49,3.515,34.5,34.5,0,0,0,0-48.951Z" transform="translate(-327.024 -51.678)" fill="#333"/>
  </g>
</svg>
